<mxfile host="Electron" modified="2025-07-04T21:04:41.173Z" agent="Mozilla/5.0 (Windows NT 10.0; Win64; x64) AppleWebKit/537.36 (KHTML, like Gecko) draw.io/24.6.4 Chrome/124.0.6367.207 Electron/30.0.6 Safari/537.36" etag="_jwhQQxRb7qdOkeDiS4p" version="24.6.4" type="device">
  <diagram name="Página-1" id="kXWNGFoQQ1wZvZvNbk3n">
    <mxGraphModel dx="600" dy="1524" grid="1" gridSize="10" guides="1" tooltips="1" connect="1" arrows="1" fold="1" page="1" pageScale="1" pageWidth="827" pageHeight="1169" math="0" shadow="0">
      <root>
        <mxCell id="0" />
        <mxCell id="1" parent="0" />
        <mxCell id="HXH2HEQc9geTP8E153n3-2" value="Entrada" style="rounded=0;whiteSpace=wrap;html=1;rotation=90;fillColor=#60A917;fontColor=#FFFFFF;strokeColor=none;" parent="1" vertex="1">
          <mxGeometry y="20" width="120" height="40" as="geometry" />
        </mxCell>
        <mxCell id="HXH2HEQc9geTP8E153n3-3" value="Decodificador" style="shape=trapezoid;perimeter=trapezoidPerimeter;whiteSpace=wrap;html=1;fixedSize=1;rotation=-90;fillColor=#a20025;fontColor=#FFFFFF;strokeColor=none;gradientColor=#1BA1E2;" parent="1" vertex="1">
          <mxGeometry x="190" y="20" width="120" height="40" as="geometry" />
        </mxCell>
        <mxCell id="HXH2HEQc9geTP8E153n3-4" value="Codificador" style="shape=trapezoid;perimeter=trapezoidPerimeter;whiteSpace=wrap;html=1;fixedSize=1;rotation=90;gradientColor=#60A917;fillColor=#A20025;strokeColor=none;fontColor=#FFFFFF;" parent="1" vertex="1">
          <mxGeometry x="50" y="20" width="120" height="40" as="geometry" />
        </mxCell>
        <mxCell id="HXH2HEQc9geTP8E153n3-5" value="Camada&lt;br&gt;de&lt;br&gt;Transição" style="rounded=0;whiteSpace=wrap;html=1;fillColor=#A20025;fontColor=#FFFFFF;strokeColor=none;" parent="1" vertex="1">
          <mxGeometry x="140" width="80" height="80" as="geometry" />
        </mxCell>
        <mxCell id="HXH2HEQc9geTP8E153n3-6" value="Entrada&lt;br&gt;Reconstruída" style="rounded=0;whiteSpace=wrap;html=1;rotation=-90;fillColor=#1ba1e2;fontColor=#FFFFFF;strokeColor=none;" parent="1" vertex="1">
          <mxGeometry x="240" y="20" width="120" height="40" as="geometry" />
        </mxCell>
      </root>
    </mxGraphModel>
  </diagram>
</mxfile>
